<svg xmlns="http://www.w3.org/2000/svg" width="128" height="128" viewBox="0 0 128 128" role="img">
	<title>My-Pi favicon</title>
	<defs>
		<linearGradient id="m-gradient" x1="16" x2="62" y1="22" y2="106" gradientUnits="userSpaceOnUse">
			<stop offset="0" stop-color="#ccff00" />
			<stop offset="0.5" stop-color="#ffb000" />
			<stop offset="1" stop-color="#ff00cc" />
		</linearGradient>
		<linearGradient id="p-gradient" x1="70" x2="112" y1="22" y2="106" gradientUnits="userSpaceOnUse">
			<stop offset="0" stop-color="#ff00cc" />
			<stop offset="1" stop-color="#00eaff" />
		</linearGradient>
		<filter id="glow" x="-30%" y="-30%" width="160%" height="160%">
			<feGaussianBlur stdDeviation="3" result="blur" />
			<feMerge>
				<feMergeNode in="blur" />
				<feMergeNode in="SourceGraphic" />
			</feMerge>
		</filter>
	</defs>
	<rect width="128" height="128" rx="28" fill="#06040f" />
	<g filter="url(#glow)" shape-rendering="crispEdges">
		<path
			d="M18 28h12v72H18zm12 0h10v12H30zm10 12h10v14H40zm10-12h10v72H50z"
			fill="url(#m-gradient)"
		/>
		<path
			d="M72 28h12v72H72zm12 0h26v12H84zm26 12h12v28h-12zM84 68h26v12H84z"
			fill="url(#p-gradient)"
		/>
	</g>
	<g fill="none" stroke-linejoin="miter" opacity="0.9" shape-rendering="crispEdges">
		<path d="M23 33h12v72H23m12-72h10v12h10v-12h10v72" stroke="#ff00cc" stroke-width="2" />
		<path d="M77 33h12v72M89 33h26v12h12v28h-12v12H89" stroke="#00eaff" stroke-width="2" />
	</g>
</svg>
