<svg xmlns="http://www.w3.org/2000/svg" width="128" height="128" role="img" viewBox="0 0 128 128"><title>My-Pi favicon</title><defs><linearGradient id="m-gradient" x1="16" x2="62" y1="22" y2="106" gradientUnits="userSpaceOnUse"><stop offset="0" stop-color="#cf0"/><stop offset=".5" stop-color="#ffb000"/><stop offset="1" stop-color="#f0c"/></linearGradient><linearGradient id="p-gradient" x1="70" x2="112" y1="22" y2="106" gradientUnits="userSpaceOnUse"><stop offset="0" stop-color="#f0c"/><stop offset="1" stop-color="#00eaff"/></linearGradient><filter id="glow" width="160%" height="160%" x="-30%" y="-30%"><feGaussianBlur result="blur" stdDeviation="3"/><feMerge><feMergeNode in="blur"/><feMergeNode in="SourceGraphic"/></feMerge></filter></defs><rect width="128" height="128" fill="#06040f" rx="28"/><g filter="url(#glow)" shape-rendering="crispEdges"><path fill="url(#m-gradient)" d="M18 28h12v72H18zm12 0h10v12H30zm10 12h10v14H40zm10-12h10v72H50z"/><path fill="url(#p-gradient)" d="M72 28h12v72H72zm12 0h26v12H84zm26 12h12v28h-12zM84 68h26v12H84z"/></g><g fill="none" stroke-linejoin="miter" opacity=".9" shape-rendering="crispEdges"><path stroke="#f0c" stroke-width="2" d="M23 33h12v72H23m12-72h10v12h10v-12h10v72"/><path stroke="#00eaff" stroke-width="2" d="M77 33h12v72M89 33h26v12h12v28h-12v12H89"/></g></svg>